<?xml version="1.0" encoding="utf-8"?>
<!-- Generator: Adobe Illustrator 24.2.1, SVG Export Plug-In . SVG Version: 6.00 Build 0)  -->
<svg version="1.1" id="Слой_1" xmlns="http://www.w3.org/2000/svg" xmlns:xlink="http://www.w3.org/1999/xlink" x="0px" y="0px"
	 viewBox="0 0 330.1 471.8" style="enable-background:new 0 0 330.1 471.8;" xml:space="preserve">
<style type="text/css">
	.st0{fill:#7A7A7A;}
</style>
<g>
	<path d="M32.1,203.4h264.7c24.6,0,36.9-29.8,19.5-47.1L184,19.5c-5.4-5.4-12.5-8.1-19.5-8.1c-7.1,0-14.1,2.7-19.4,8.1L12.5,156.3
		C-4.8,173.6,7.5,203.4,32.1,203.4z"/>
	<path class="st0" d="M296.7,267.4H32.1c-24.6,0-36.9,29.8-19.5,47.1L145,451.3c5.3,5.4,11.5,8.1,19.4,8.1c7.1,0,14.1-2.7,19.5-8.1
		l132.3-136.8C333.6,297.2,321.3,267.4,296.7,267.4z"/>
</g>
</svg>
